# xmcd
#
# Track frame offsets:
#	150
#	26995
#	53310
#	82901
#	103247
#	122539
#	150235
#	172764
#	189565
#	208428
#
# Disc length: 3022 seconds
#
# Revision: 9
# Processed by: cddbd v1.5.2PL0 Copyright (c) Steve Scherf et al.
# Submitted via: EZCDAudioConverter 2.2.2.1
#
DISCID=760bcc0a
DTITLE=Mary Gauthier - Mercy Now
DYEAR=2005
DGENRE=Country
TTITLE0=Falling Out Of Love
TTITLE1=Mercy Now
TTITLE2=Wheel Inside The Wheel
TTITLE3=I Drink
TTITLE4=Just Say She's A Rhymer
TTITLE5=Prayer Without Words
TTITLE6=Your Sister Cried
TTITLE7=Empty Spaces
TTITLE8=Drop In A Bucket
TTITLE9=It Ain't the Wind, It's the Rain
EXTD=
EXTT0=
EXTT1=
EXTT2=
EXTT3=
EXTT4=
EXTT5=
EXTT6=
EXTT7=
EXTT8=
EXTT9=
PLAYORDER=
